<svg width="22" height="15" viewBox="0 0 22 15" fill="none" xmlns="http://www.w3.org/2000/svg">
<path d="M11 -3.05176e-05C6 -3.05176e-05 1.73 3.10997 0 7.49997C1.73 11.89 6 15 11 15C16 15 20.27 11.89 22 7.49997C20.27 3.10997 16 -3.05176e-05 11 -3.05176e-05ZM11 12.5C8.24 12.5 6 10.26 6 7.49997C6 4.73997 8.24 2.49997 11 2.49997C13.76 2.49997 16 4.73997 16 7.49997C16 10.26 13.76 12.5 11 12.5ZM11 4.49997C9.34 4.49997 8 5.83997 8 7.49997C8 9.15997 9.34 10.5 11 10.5C12.66 10.5 14 9.15997 14 7.49997C14 5.83997 12.66 4.49997 11 4.49997Z" fill="#DEDEDE"/>
</svg>