<svg width="44" height="42" viewBox="0 0 44 42" fill="none" xmlns="http://www.w3.org/2000/svg">
<path d="M21.9064 34.2157L21.6484 34.0603L21.3904 34.2157L10.896 40.5376L10.896 40.5375L10.8856 40.5441C10.5061 40.7856 10.1292 40.8793 9.74153 40.847C9.32673 40.8124 8.97773 40.6769 8.67938 40.4448C8.36302 40.1987 8.11691 39.8917 7.93893 39.5172C7.78345 39.1901 7.74325 38.8129 7.84802 38.3603L10.6295 26.4125L10.698 26.1182L10.4694 25.9208L1.18023 17.8954C0.827681 17.577 0.628243 17.2351 0.549178 16.8678C0.464185 16.473 0.489496 16.0948 0.62402 15.7222C0.766765 15.3299 0.97447 15.0242 1.24182 14.7902C1.48365 14.5786 1.84288 14.4177 2.36102 14.3418L14.6115 13.2683L14.9117 13.242L15.0286 12.9644L19.7701 1.7114L19.7708 1.70956C19.9424 1.29792 20.1981 1.00757 20.5382 0.813639C20.9142 0.599172 21.2822 0.5 21.6484 0.5C22.0165 0.5 22.3843 0.599308 22.7579 0.813232C23.0967 1.00718 23.3531 1.29801 23.5265 1.71087L23.5267 1.7114L28.2682 12.9644L28.3851 13.242L28.6853 13.2683L40.9358 14.3418C41.4539 14.4177 41.8131 14.5786 42.055 14.7902C42.3224 15.0243 42.5302 15.3302 42.673 15.7227C42.8092 16.0973 42.835 16.4761 42.7501 16.8703L43.2389 16.9756L42.7501 16.8703C42.6712 17.237 42.4714 17.5779 42.1174 17.8947L32.8274 25.9208L32.5988 26.1182L32.6673 26.4125L35.4487 38.3599C35.4487 38.3601 35.4488 38.3602 35.4488 38.3604C35.5536 38.815 35.5132 39.1929 35.3579 39.5198C35.18 39.894 34.9342 40.1998 34.6185 40.444L34.6174 40.4448C34.3191 40.6769 33.9701 40.8124 33.5553 40.847C33.1676 40.8793 32.7907 40.7856 32.4112 40.5441L32.4113 40.544L32.4008 40.5376L21.9064 34.2157Z" stroke="#C2C2C2"/>
</svg>
